# xmcd
#
# Track frame offsets:
#	150
#	21877
#	32325
#	44952
#	56005
#	76555
#	88342
#	106826
#	115864
#	127127
#	137100
#	150690
#	167670
#	181062
#	192030
#	205472
#	222745
#	233170
#	246760
#	256735
#	267765
#	277737
#	288135
#	299300
#	311017
#	324870
#
# Disc length: 4460 seconds
#
# Revision: 1
# Processed by: cddbd v1.4PL0 Copyright (c) Steve Scherf et al.
# Submitted via: audiograbber 1.81.03
#
DISCID=72116a1a
DTITLE=Various Artist - It´s Country Time CD 2
DYEAR=1900
DGENRE=
TTITLE0=Jonny Hill - Ruf Teddybär Eins-Vier
TTITLE1=Jonny Hill - König der Landstraße
TTITLE2=Jonny Hill - 500 Meilen von zu Haus
TTITLE3=Jonny Hill - Die Arbeit hört nie auf
TTITLE4=Jonny Hill - Der Feigling
TTITLE5=Jonny Hill - Mehr hinterm Lenkrad als zu Haus
TTITLE6=Jonny Hill - Sylvias Mutter
TTITLE7=Jonny Hill - Ein Ring aus Feuer
TTITLE8=Jonny Hill - Ich fahr´ meine Tour
TTITLE9=Jonny Hill - Oh Susanna!
TTITLE10=Jonny Hill - Ruby, mach´s mir doch nicht so schwer
TTITLE11=Jonny Hill - Rosen für Mama
TTITLE12=Freddy Quinn - Hallo, liebe Freunde - it´s Country Time
TTITLE13=Freddy Quinn - Die Wahrheit über Tom Dooley
TTITLE14=Freddy Quinn - Green, Green Grass of Home
TTITLE15=Freddy Quinn - Gib mir ein Zuhaus
TTITLE16=Freddy Quinn - Die schönste Frau von Texas
TTITLE17=Freddy Quinn - Oh, nur mit dir
TTITLE18=Freddy Quinn - Oh, wie schade Clementine
TTITLE19=Freddy Quinn - Kann Liebe alles verzeihn
TTITLE20=Martin Lauer - Wenn ich ein Cowboy wär
TTITLE21=Martin Lauer - Sacramento
TTITLE22=Martin Lauer - Am Lagerfeuer
TTITLE23=Martin Lauer - Sein bestes Pferd
TTITLE24=Martin Lauer - Taxi nach Texas
TTITLE25=Martin Lauer - Die letzte Rose der Prärie
EXTD=
EXTT0=
EXTT1=
EXTT2=
EXTT3=
EXTT4=
EXTT5=
EXTT6=
EXTT7=
EXTT8=
EXTT9=
EXTT10=
EXTT11=
EXTT12=
EXTT13=
EXTT14=
EXTT15=
EXTT16=
EXTT17=
EXTT18=
EXTT19=
EXTT20=
EXTT21=
EXTT22=
EXTT23=
EXTT24=
EXTT25=
PLAYORDER=
